PathFileType	4	(X/Y/Z)	abd.trc
DataRate	CameraRate	NumFrames	NumMarkers	Units	OrigDataRate	OrigDataStartFrame	OrigNumFrames
100.0	100.0	4	17	mm	100.0	298	1189
Frame#	Time	STER			XIPH			T10			T1			CLAV_SC			CLAV_AC			SCAP_AA			SCAP_CP			SCAP_TS			SCAP_IA			DELT			ARMl			EPICm			EPICl			LARM_elb			STYLr			STYLu		
		X1	Y1	Z1	X2	Y2	Z2	X3	Y3	Z3	X4	Y4	Z4	X5	Y5	Z5	X6	Y6	Z6	X7	Y7	Z7	X8	Y8	Z8	X9	Y9	Z9	X10	Y10	Z10	X11	Y11	Z11	X12	Y12	Z12	X13	Y13	Z13	X14	Y14	Z14	X15	Y15	Z15	X16	Y16	Z16	X17	Y17	Z17

298	2.97	390.04608154296875	85.11803436279297	1436.7628173828125	399.26141357421875	133.2925262451172	1272.6697998046875	387.2851867675781	-100.88252258300781	1243.842041015625	367.2875061035156	-71.72277069091797	1474.4266357421875	424.5438537597656	74.45967102050781	1447.950439453125	539.8385620117188	-20.35193634033203	1501.179931640625	546.0765991210938	-59.773101806640625	1482.769775390625	498.4013366699219	-62.65519714355469	1493.8187255859375	494.2992248535156	-112.382568359375	1433.1370849609375	494.5807800292969	-116.54487609863281	1292.691162109375	671.0706176757812	-57.362403869628906	1477.834228515625	711.1582641601562	-70.36103820800781	1463.6580810546875	849.8445434570312	-26.847850799560547	1382.77490234375	832.244140625	-70.68037414550781	1474.0780029296875	874.2696533203125	-69.63275909423828	1397.8779296875	1015.305908203125	118.5425033569336	1560.5242919921875	1044.6141357421875	105.05697631835938	1485.052490234375
299	2.98	389.9189758300781	85.04978942871094	1436.71435546875	399.12713623046875	133.1883544921875	1272.6092529296875	387.15411376953125	-100.9296875	1243.8260498046875	367.2383117675781	-71.79766082763672	1474.43603515625	424.34869384765625	74.41387939453125	1447.85791015625	539.98046875	-20.313634872436523	1501.0682373046875	546.2146606445312	-59.7115592956543	1482.6290283203125	498.4435119628906	-62.627227783203125	1493.7325439453125	494.1592102050781	-112.39688873291016	1433.38623046875	494.5076599121094	-116.60343933105469	1292.63818359375	670.2281494140625	-57.38900375366211	1477.1396484375	711.2901000976562	-70.10261535644531	1462.6605224609375	849.4550170898438	-26.325502395629883	1381.289794921875	832.3721313476562	-70.27753448486328	1472.4449462890625	874.082275390625	-69.08550262451172	1396.026611328125	1015.5787353515625	119.00325012207031	1558.2420654296875	1044.7431640625	105.5418472290039	1482.5601806640625
300	2.99	389.80523681640625	85.00894165039062	1436.6595458984375	398.97589111328125	133.0794219970703	1272.556640625	387.03106689453125	-100.97612762451172	1243.826171875	367.20458984375	-71.84443664550781	1474.45654296875	424.2116394042969	74.37582397460938	1447.9598388671875	540.1515502929688	-20.292003631591797	1501.010498046875	546.2855834960938	-59.66030502319336	1482.4613037109375	498.4840393066406	-62.60332489013672	1493.650634765625	494.2558288574219	-112.39913940429688	1433.109619140625	494.3665466308594	-116.65243530273438	1292.5665283203125	670.364990234375	-57.199527740478516	1476.211181640625	711.412841796875	-69.85694122314453	1461.5213623046875	849.1848754882812	-25.766878128051758	1379.28759765625	832.5562744140625	-69.85250854492188	1470.6396484375	873.8355712890625	-68.53456115722656	1393.9658203125	1016.0414428710938	119.50536346435547	1555.5382080078125	1044.916015625	106.05038452148438	1479.7041015625
301	3.0	389.72174072265625	84.96080780029297	1436.57568359375	398.7726745605469	132.961669921875	1272.4569091796875	386.8970642089844	-101.02885437011719	1243.8265380859375	367.1863098144531	-71.92207336425781	1474.4669189453125	424.19622802734375	74.36243438720703	1447.75244140625	540.183349609375	-20.19693374633789	1500.7205810546875	546.4446411132812	-59.599483489990234	1482.264404296875	498.5525207519531	-62.55857467651367	1493.5469970703125	494.25018310546875	-112.43144226074219	1433.091796875	494.1197509765625	-116.73149108886719	1292.5052490234375	670.7711181640625	-56.95713806152344	1475.1932373046875	711.6134033203125	-69.64514923095703	1460.23291015625	848.7807006835938	-25.267578125	1377.3662109375	832.7640380859375	-69.45096588134766	1468.62841796875	873.6141357421875	-68.01725006103516	1391.6805419921875	1017.0040283203125	119.81341552734375	1552.41845703125	1045.13232421875	106.58158111572266	1476.517578125
